<mxfile host="app.diagrams.net" modified="2023-06-22T04:35:03.279Z" agent="Mozilla/5.0 (Windows NT 10.0; Win64; x64) AppleWebKit/537.36 (KHTML, like Gecko) Chrome/114.0.0.0 Safari/537.36" version="21.5.0" etag="VCGlZbQ922Ge1V4X9jFN" type="github">
  <diagram name="Page-1" id="cFKwdWb0h8x7NsGgJj1N">
    <mxGraphModel>
      <root>
        <mxCell id="0" />
        <mxCell id="1" parent="0" />
      </root>
    </mxGraphModel>
  </diagram>
</mxfile>
